<svg xmlns="http://www.w3.org/2000/svg" xmlns:xlink="http://www.w3.org/1999/xlink" width="116.999" height="35.907" viewBox="0 0 116.999 35.907">
  <defs>
    <linearGradient id="linear-gradient" y1="0.5" x2="1" y2="0.5" gradientUnits="objectBoundingBox">
      <stop offset="0" stop-color="#6abdbd"/>
      <stop offset="1" stop-color="#117f7c"/>
    </linearGradient>
    <linearGradient id="linear-gradient-2" y1="0.5" x2="1" y2="0.5" gradientUnits="objectBoundingBox">
      <stop offset="0" stop-color="#579d9e"/>
      <stop offset="1" stop-color="#00615e"/>
    </linearGradient>
    <linearGradient id="linear-gradient-3" x1="-0.189" y1="0.688" x2="1.18" y2="0.095" xlink:href="#linear-gradient"/>
    <linearGradient id="linear-gradient-4" x1="0.562" y1="-0.124" x2="0.457" y2="0.932" gradientUnits="objectBoundingBox">
      <stop offset="0" stop-color="#f07"/>
      <stop offset="1" stop-color="#c60264"/>
    </linearGradient>
    <linearGradient id="linear-gradient-5" x1="12.243" y1="0.374" x2="14.05" y2="0.374" xlink:href="#linear-gradient-4"/>
    <linearGradient id="linear-gradient-6" y1="0.5" x2="1" y2="0.5" gradientUnits="objectBoundingBox">
      <stop offset="0" stop-color="#f07"/>
      <stop offset="1" stop-color="#79003b"/>
    </linearGradient>
    <linearGradient id="linear-gradient-7" x1="0.01" y1="-0.214" x2="0.422" y2="0.373" gradientUnits="objectBoundingBox">
      <stop offset="0" stop-color="#a7c62a"/>
      <stop offset="1" stop-color="#6f8200"/>
    </linearGradient>
    <linearGradient id="linear-gradient-8" x1="0.506" y1="0.25" x2="0.48" y2="1.14" gradientUnits="objectBoundingBox">
      <stop offset="0.004" stop-color="#718b32"/>
      <stop offset="1" stop-color="#3c4e1f"/>
    </linearGradient>
    <linearGradient id="linear-gradient-9" x1="0.426" y1="-0.303" x2="0.688" y2="1.055" xlink:href="#linear-gradient-7"/>
    <linearGradient id="linear-gradient-10" x1="0.406" y1="-0.242" x2="0.54" y2="0.816" gradientUnits="objectBoundingBox">
      <stop offset="0" stop-color="#fda037"/>
      <stop offset="1" stop-color="#c96400"/>
    </linearGradient>
    <linearGradient id="linear-gradient-11" x1="-0.228" y1="-0.007" x2="1.901" y2="1.476" xlink:href="#linear-gradient-10"/>
  </defs>
  <g id="companylogo" transform="translate(-120.135 -742.5)">
    <path id="Path_11771" data-name="Path 11771" d="M-16.367-7.153l-2.371,3.821-2.379-3.821h-.738V-.987h.738V-5.8l2.206,3.56h.339l2.206-3.56V-.987h.747V-7.153Zm2.162,3.96A2.238,2.238,0,0,0-11.981-.9,1.921,1.921,0,0,0-10.21-1.986l.035,1h.712V-5.381h-.712l-.035,1a1.921,1.921,0,0,0-1.772-1.085A2.233,2.233,0,0,0-14.2-3.193Zm.747,0a1.581,1.581,0,0,1,1.589-1.572,1.568,1.568,0,0,1,1.58,1.572A1.571,1.571,0,0,1-11.868-1.6,1.584,1.584,0,0,1-13.458-3.193Zm5.2,0A2.238,2.238,0,0,0-6.033-.9,1.921,1.921,0,0,0-4.261-1.986l.035,1h.712V-7.5h-.747v3.118A1.921,1.921,0,0,0-6.033-5.468,2.233,2.233,0,0,0-8.256-3.193Zm.747,0A1.581,1.581,0,0,1-5.92-4.765a1.568,1.568,0,0,1,1.58,1.572A1.571,1.571,0,0,1-5.92-1.6,1.584,1.584,0,0,1-7.509-3.193Zm9.822.052a2.208,2.208,0,0,0-2.2-2.327,2.181,2.181,0,0,0-2.2,2.258A2.21,2.21,0,0,0,.185-.9,2.036,2.036,0,0,0,2.191-2.264l-.66-.087a1.432,1.432,0,0,1-1.346.782A1.41,1.41,0,0,1-1.335-2.95H2.313ZM.116-4.8a1.4,1.4,0,0,1,1.45,1.311h-2.9A1.39,1.39,0,0,1,.116-4.8Zm9.631.53a1.451,1.451,0,0,0,.695-1.285c0-.929-.634-1.6-1.919-1.6h-1.8V-.987H8.652c1.329,0,2.136-.608,2.136-1.711A1.737,1.737,0,0,0,9.746-4.27ZM7.471-6.449H8.522c.773,0,1.181.339,1.181.938,0,.643-.408.929-1.181.929H7.471ZM8.652-1.69H7.471V-3.879H8.7c.877,0,1.355.469,1.355,1.146S9.572-1.69,8.652-1.69Zm3.1-3.691L13.663-1,12.794,1.01h.79l2.77-6.391h-.8L14.062-1.916,12.551-5.381Z" transform="translate(181.99 750)" fill="rgba(255,255,255,0.5)"/>
    <g id="wrteam_logo" transform="translate(120.135 758.505)">
      <g id="wrteam" transform="translate(41.903 1.204)" style="isolation: isolate">
        <path id="Path_52" data-name="Path 52" d="M2302.162,817.281l-.447,2.329h-2.73v0h-3.332v0h-4.132c0-.042-.01-.085-.016-.126a3.024,3.024,0,0,0-.519-1.293,2.866,2.866,0,0,0-1.117-.909Z" transform="translate(-2262.173 -817.281)" fill="#fff"/>
        <path id="Path_53" data-name="Path 53" d="M2403.778,912.837l-1.589,8.277h3.332l1.589-8.277Z" transform="translate(-2370.76 -909.661)" fill="#fff"/>
        <path id="Path_54" data-name="Path 54" d="M1461.38,824.386l-1.262-7.1H1456.7l2.44,11.459Z" transform="translate(-1456.701 -817.286)" fill="#fff"/>
        <path id="Path_55" data-name="Path 55" d="M1539.6,823.487l-1.339-6.2h-2.333l-5.882,11.451,0,.008h2.762l3.355-6.668,1.3,5.562Z" transform="translate(-1527.613 -817.286)" fill="#fff"/>
        <path id="Path_56" data-name="Path 56" d="M1768.34,817.286l-5.886,11.459h2.7l6.1-11.459Z" transform="translate(-1752.291 -817.286)" fill="#fff"/>
        <path id="Path_57" data-name="Path 57" d="M1956.078,824.281a4.731,4.731,0,0,0,.552-.166,4.3,4.3,0,0,0,2.338-1.983,4.322,4.322,0,0,0,.45-1.244,3.737,3.737,0,0,0,.031-1.264,2.673,2.673,0,0,0-.463-1.149,2.612,2.612,0,0,0-1.109-.859,4.474,4.474,0,0,0-1.826-.331h-8.2l-.445,2.318h-.1l2.771,0h3.7v.008h.344a3.424,3.424,0,0,1,1.641.171q.41.3.252,1.12a1.741,1.741,0,0,1-.36.834,1.329,1.329,0,0,1-.723.4,6.1,6.1,0,0,1-1.3.107h-.719l.342-1.782h-3.34l-1.589,8.277h3.34l.825-4.3h.628l1.616,4.3h3.182Z" transform="translate(-1930.999 -817.286)" fill="#fff"/>
        <path id="Path_58" data-name="Path 58" d="M2877.4,1014.579h0a1.272,1.272,0,0,1-.588.161.6.6,0,0,1-.479-.212.7.7,0,0,1-.106-.612,1.31,1.31,0,0,1,.617-.883,7.068,7.068,0,0,1,.946-.481l.248-1.29-.187.06-.916.286a14.584,14.584,0,0,0-1.73.636,3.536,3.536,0,0,0-1.118.789,2.4,2.4,0,0,0-.595,1.22,2.107,2.107,0,0,0,.028.945,1.3,1.3,0,0,0,.582.761,2.376,2.376,0,0,0,1.3.3,3.292,3.292,0,0,0,1.486-.358,2.118,2.118,0,0,0,.293-.19Z" transform="translate(-2826.353 -1004.816)" fill="#fff"/>
        <path id="Path_59" data-name="Path 59" d="M2939.066,919.314a.285.285,0,0,1-.287-.355l.691-3.6a1.878,1.878,0,0,0-.491-1.848c-.462-.432-1.123-.655-2.7-.669v0h-2.492l-.347,1.809h2.421c.386.027.635.129.729.318a1.449,1.449,0,0,1,.052.91h0l-.244,1.271h0l-.363,1.891,0,0-.181.942a.877.877,0,0,0,.81,1.127h.451l.46,0h2.865l.346-1.8Z" transform="translate(-2884.348 -909.666)" fill="#fff"/>
        <path id="Path_60" data-name="Path 60" d="M3152.066,915.54a3.52,3.52,0,0,0-.486-1.471,2.77,2.77,0,0,0-1.143-1.035,3.9,3.9,0,0,0-1.757-.364,4.936,4.936,0,0,0-1.722.3,4.82,4.82,0,0,0-1.355.784,2.819,2.819,0,0,0-.921-.725,3.9,3.9,0,0,0-1.757-.364,4.936,4.936,0,0,0-1.722.3,4.863,4.863,0,0,0-1.543.937,5.383,5.383,0,0,0-1.147,1.453,6.025,6.025,0,0,0-.642,1.787c-.012.065-.024.13-.031.179l-.7,3.623h2.61l.769-4.006a1.848,1.848,0,0,1,1.843-1.516,1.225,1.225,0,0,1,1.308,1.4l-.791,4.121h2.634l.713-3.712c.022-.117.041-.225.056-.327a1.837,1.837,0,0,1,1.835-1.483,1.226,1.226,0,0,1,1.308,1.4l-.791,4.121h2.634l.7-3.649A5.365,5.365,0,0,0,3152.066,915.54Z" transform="translate(-3081.283 -909.499)" fill="#fff"/>
        <path id="Path_61" data-name="Path 61" d="M2603.771,917.712h2.844a.006.006,0,0,1,0,0h5.431l.11-.571a4.468,4.468,0,0,0-.094-2.485,2.583,2.583,0,0,0-1.19-1.387,3.7,3.7,0,0,0-1.754-.424,5.836,5.836,0,0,0-2.556.535,4.676,4.676,0,0,0-1.8,1.474,5.333,5.333,0,0,0-.911,2.128,3.755,3.755,0,0,0-.083.624C2603.769,917.642,2603.773,917.676,2603.771,917.712Zm3.636-2.646a1.732,1.732,0,0,1,1.206-.472,1.054,1.054,0,0,1,.98.464,1.723,1.723,0,0,1,.134,1.241h-2.981A2.17,2.17,0,0,1,2607.407,915.066Z" transform="translate(-2565.64 -909.666)" fill="#fff"/>
        <path id="Path_62" data-name="Path 62" d="M2607.081,1077.823H2604.1c.013.118.025.236.049.352a2.806,2.806,0,0,0,.646,1.3,3.076,3.076,0,0,0,1.241.837,4.623,4.623,0,0,0,1.7.294c.064,0,.129,0,.187,0h1.215l.4-2.083h-1.211A1.482,1.482,0,0,1,2607.081,1077.823Z" transform="translate(-2565.961 -1069.162)" fill="#fff"/>
      </g>
      <g id="w">
        <path id="Path_63" data-name="Path 63" d="M878.231,781.052l-4.949,17.162c-.067.2-.13.4-.19.58-.441,1.342-.719,2.1-1.4,2.16h-7.458l3.005-10.42.291-1.01h0l2.443-8.471Z" transform="translate(-842.023 -781.052)" fill="url(#linear-gradient)"/>
        <path id="Path_64" data-name="Path 64" d="M960.15,1045.166c-.441,1.342-.719,2.1-1.4,2.16h-1.055l-.581-.511-2.816-9.909-.012-.041.3-.969.027.088.077.251.122.394q.08.258.161.516.1.309.2.617.111.349.224.7.122.38.247.759.131.4.264.8t.277.819q.14.409.284.818t.285.8q.138.378.281.756.132.348.272.694.124.307.257.611c.075.171.153.341.237.508a2.156,2.156,0,0,0,.357.573,1.047,1.047,0,0,0,.521.286.931.931,0,0,0,.328.006,1.377,1.377,0,0,0,.439-.153A2.887,2.887,0,0,0,960.15,1045.166Z" transform="translate(-929.081 -1027.425)" fill="url(#linear-gradient-2)"/>
        <path id="Path_65" data-name="Path 65" d="M1043.357,795.518l4.171-14.463h-8.179A35.162,35.162,0,0,0,1043.357,795.518Z" transform="translate(-1011.319 -781.055)" fill="url(#linear-gradient-3)"/>
        <path id="Path_66" data-name="Path 66" d="M632.931,800.96h-8.26c-.795-.075-1.068-1.074-1.632-2.858-.015-.046-.778-2.68-1.644-5.665l-.52-1.793c-.98-3.382-1.929-6.652-1.952-6.726-.564-1.785-.837-2.783-1.632-2.858h8.234c.6.056.9.634,1.253,1.676h0c.117.344.239.739.379,1.182.049.155,4.094,14.03,4.143,14.185C631.864,799.886,632.136,800.885,632.931,800.96Z" transform="translate(-603.291 -781.058)" fill="url(#linear-gradient-4)"/>
        <path id="Path_67" data-name="Path 67" d="M736.3,1096.51c-.8-2.929-3-6.212-5.118-6.212.988,3.407,1.946,6.712,1.962,6.764.564,1.785.837,2.784,1.632,2.859H738.5C737.6,1099.589,736.692,1097.958,736.3,1096.51Z" transform="translate(-713.391 -1080.018)" fill="url(#linear-gradient-5)"/>
        <path id="Path_68" data-name="Path 68" d="M726.672,782.734c-.01-.022-.021-.043-.032-.064a1.105,1.105,0,0,0-1.1-.524.909.909,0,0,0-.552.239,1.863,1.863,0,0,0-.337.5l-.021.042c-.235.457-.441.928-.635,1.4s-.374.964-.551,1.45c-.343.943-.664,1.895-.974,2.849q-.4,1.235-.781,2.478-.2.644-.388,1.289l-.013.043-.664.65c-.032,0,.07-1.453.143-2.443.038-.511.068-.9.068-.9l1.786-5.827,1.358-2.208.574-.652h.864C726.017,781.114,726.319,781.692,726.672,782.734Z" transform="translate(-703.186 -781.058)" fill="url(#linear-gradient-6)"/>
        <path id="Path_69" data-name="Path 69" d="M210.137,800.96h-7.458c-.674-.064-.954-.8-1.384-2.1q-.1-.3-.209-.636l-4.949-17.162h8.26l2.425,8.409.071.247Z" transform="translate(-196.137 -781.058)" fill="url(#linear-gradient-7)"/>
        <path id="Path_70" data-name="Path 70" d="M357.119,1036.862l-.012.041-2.816,9.909-.581.511h-1.019c-.674-.063-.954-.8-1.384-2.1a2.779,2.779,0,0,0,.656.511,1.374,1.374,0,0,0,.439.152.926.926,0,0,0,.328-.006,1.046,1.046,0,0,0,.521-.286,2.155,2.155,0,0,0,.357-.572c.084-.167.161-.338.237-.509.089-.2.174-.407.257-.611q.14-.346.272-.694.144-.377.281-.756.145-.4.285-.8c.1-.272,1.9-5.724,1.913-5.759l.053.185Z" transform="translate(-346.149 -1027.422)" fill="url(#linear-gradient-8)"/>
        <path id="Path_71" data-name="Path 71" d="M200.785,797.169a34.441,34.441,0,0,1,4.345-13.576l-.732-2.537h-8.26Z" transform="translate(-196.138 -781.055)" fill="url(#linear-gradient-9)"/>
        <path id="Path_72" data-name="Path 72" d="M407.735,783.913c-.049.155-4.083,14.079-4.116,14.185-.564,1.785-.837,2.784-1.632,2.858h-8.26c.795-.075,1.068-1.073,1.632-2.858.049-.155,4.094-14.03,4.143-14.185.564-1.785.837-2.783,1.632-2.858h8.234C408.572,781.13,408.3,782.128,407.735,783.913Z" transform="translate(-387.159 -781.055)" fill="url(#linear-gradient-10)"/>
        <path id="Path_73" data-name="Path 73" d="M397.652,800.957c1.014-1.92,1.833-3.931,2.767-5.9a33.591,33.591,0,0,1,3.879-6.24,37.515,37.515,0,0,1,2.976-3.323c.275-.946.451-1.554.461-1.585.564-1.785.837-2.783,1.632-2.858h-8.234c-.795.075-1.068,1.074-1.632,2.858-.049.155-4.094,14.03-4.143,14.185-.564,1.785-.837,2.784-1.632,2.858Z" transform="translate(-387.159 -781.055)" fill="url(#linear-gradient-11)"/>
      </g>
      <path id="tagline" d="M1.146,46.474l.9-1.688h.232L1.253,46.679v1.192H1.032V46.7L0,44.786H.247Zm5.561-.15a1.723,1.723,0,0,1-.367,1.162,1.265,1.265,0,0,1-1.013.427,1.262,1.262,0,0,1-1.011-.427,1.73,1.73,0,0,1-.367-1.166,1.7,1.7,0,0,1,.37-1.159,1.275,1.275,0,0,1,1.012-.423,1.261,1.261,0,0,1,1.011.425A1.725,1.725,0,0,1,6.707,46.324Zm-2.524,0a1.58,1.58,0,0,0,.3,1.024,1.032,1.032,0,0,0,.848.362,1.038,1.038,0,0,0,.851-.359,1.582,1.582,0,0,0,.294-1.028A1.565,1.565,0,0,0,6.178,45.3a1.037,1.037,0,0,0-.847-.356,1.043,1.043,0,0,0-.849.359A1.552,1.552,0,0,0,4.183,46.324Zm6.9-1.538v2a1.106,1.106,0,0,1-.308.831,1.18,1.18,0,0,1-.859.3,1.043,1.043,0,0,1-1.137-1.139V44.786h.217v2a.86.86,0,0,0,.945.941.844.844,0,0,0,.926-.92V44.786Zm2.451,1.741v1.344h-.215V44.786h.734A1.383,1.383,0,0,1,14.9,45a.757.757,0,0,1,.274.638.834.834,0,0,1-.164.523.909.909,0,0,1-.5.306l.838,1.405h-.257l-.8-1.344Zm0-.186h.589a.939.939,0,0,0,.606-.174.622.622,0,0,0,.215-.514.6.6,0,0,0-.211-.513,1.152,1.152,0,0,0-.688-.16h-.511Zm8.725,1.53h-.177l-.677-2.38q-.084-.293-.127-.481-.034.184-.1.422t-.68,2.439h-.181l-.848-3.085h.226l.54,1.988.059.223q.027.1.05.192t.04.173q.018.083.033.168.051-.287.215-.871l.528-1.872H21.4l.618,2.148q.108.371.154.6.027-.152.071-.323t.651-2.424h.217Zm5.386-1.547a1.723,1.723,0,0,1-.367,1.162,1.412,1.412,0,0,1-2.024,0,1.73,1.73,0,0,1-.367-1.166,1.7,1.7,0,0,1,.37-1.159,1.275,1.275,0,0,1,1.012-.423,1.261,1.261,0,0,1,1.011.425A1.725,1.725,0,0,1,27.642,46.324Zm-2.524,0a1.58,1.58,0,0,0,.3,1.024,1.182,1.182,0,0,0,1.7,0,1.582,1.582,0,0,0,.294-1.028,1.565,1.565,0,0,0-.294-1.022,1.186,1.186,0,0,0-1.7,0A1.552,1.552,0,0,0,25.118,46.324Zm4.844.2v1.344h-.215V44.786h.734a1.383,1.383,0,0,1,.848.212.757.757,0,0,1,.274.638.834.834,0,0,1-.164.523.909.909,0,0,1-.5.306l.838,1.405h-.257l-.8-1.344Zm0-.186h.589a.939.939,0,0,0,.606-.174.622.622,0,0,0,.215-.514.6.6,0,0,0-.211-.513,1.152,1.152,0,0,0-.688-.16h-.511Zm5.823,1.53h-.264l-1.184-1.629-.411.363v1.266H33.71V44.786h.215v1.6l.342-.342,1.209-1.262h.274l-1.264,1.3Zm6.208-2.2a.82.82,0,0,1-.3.686,1.366,1.366,0,0,1-.861.238h-.477v1.274h-.215V44.786h.755Q41.992,44.786,41.992,45.672Zm-1.642.739h.424a1.285,1.285,0,0,0,.753-.172.649.649,0,0,0,.232-.558.63.63,0,0,0-.219-.529,1.1,1.1,0,0,0-.679-.172h-.511Zm5.194.371H44.291l-.43,1.089h-.238l1.241-3.1H45l1.215,3.1h-.243Zm-1.175-.194h1.1l-.42-1.112q-.053-.131-.127-.363a3.384,3.384,0,0,1-.124.367Zm3.894-.061v1.344h-.215V44.786h.734a1.383,1.383,0,0,1,.848.212.757.757,0,0,1,.274.638.834.834,0,0,1-.164.523.909.909,0,0,1-.5.306l.838,1.405h-.257l-.8-1.344Zm0-.186h.589a.939.939,0,0,0,.606-.174.622.622,0,0,0,.215-.514.6.6,0,0,0-.211-.513,1.152,1.152,0,0,0-.688-.16h-.511Zm4.552,1.53H52.6V44.988h-1v-.2h2.222v.2h-1Zm5.1,0H57.7L55.87,45.132h-.017q.025.49.025.739v2h-.207V44.786h.215l1.825,2.735h.013q-.019-.38-.019-.722V44.786h.209Zm3.955,0H60.184V44.786H61.87v.2H60.4v1.167h1.388v.2H60.4v1.323H61.87Zm2.309-1.344v1.344h-.215V44.786H64.7a1.383,1.383,0,0,1,.848.212.757.757,0,0,1,.274.638.834.834,0,0,1-.164.523.909.909,0,0,1-.5.306L66,47.871h-.257l-.8-1.344Zm0-.186h.589a.939.939,0,0,0,.606-.174.622.622,0,0,0,.215-.514.6.6,0,0,0-.211-.513,1.152,1.152,0,0,0-.688-.16H64.18Z" transform="translate(44.271 -29.691)" fill="#fff"/>
      <path id="registed" d="M3636.6,815.179h0a1.068,1.068,0,0,0-1.066-1.066h0a1.068,1.068,0,0,0-1.066,1.066h0a1.065,1.065,0,0,0,1.066,1.066h0a1.063,1.063,0,0,0,.754-.313,1.1,1.1,0,0,0,.088-.1,1.064,1.064,0,0,0,.224-.654Zm-1.542.546V814.6h.58a.833.833,0,0,1,.246.028.261.261,0,0,1,.137.1.308.308,0,0,1,.052.182.3.3,0,0,1-.15.272.412.412,0,0,1-.122.044.352.352,0,0,1,.091.042.356.356,0,0,1,.056.059.429.429,0,0,1,.049.07l.168.326h-.393l-.186-.344a.268.268,0,0,0-.063-.087.147.147,0,0,0-.085-.026h-.031v.457h-.349Zm.349-.67h.147a.544.544,0,0,0,.092-.015.093.093,0,0,0,.056-.035.1.1,0,0,0,.022-.065.1.1,0,0,0-.035-.084.208.208,0,0,0-.13-.029h-.153v.229Zm1.482.124h0a1.35,1.35,0,0,1-.285.832,1.384,1.384,0,0,1-.112.127,1.353,1.353,0,0,1-.959.4h0a1.355,1.355,0,0,1-1.355-1.356h0a1.355,1.355,0,0,1,1.356-1.356h0a1.355,1.355,0,0,1,1.355,1.356Z" transform="translate(-3519.887 -812.733)" fill="#fff"/>
    </g>
  </g>
</svg>
