<svg xmlns="http://www.w3.org/2000/svg" xmlns:xlink="http://www.w3.org/1999/xlink" width="90.403" height="90.535" viewBox="0 0 90.403 90.535">
  <defs>
    <linearGradient id="linear-gradient" x1="-0.026" y1="-0.018" x2="1" y2="1.02" gradientUnits="objectBoundingBox">
      <stop offset="0" stop-color="#2051d5"/>
      <stop offset="1" stop-color="#143283"/>
    </linearGradient>
  </defs>
  <path id="mainlogo" d="M90.4,45.335c0,.783-.017,1.566-.059,2.332a3.726,3.726,0,0,1-3.729,3.527h-18.1A21.773,21.773,0,0,1,47.549,67.1c-.4,0-.783-.008-1.17-.034-.387.025-.783.034-1.179.034a21.778,21.778,0,0,1-17.41-8.7,1.876,1.876,0,0,1,.354-2.627,1.855,1.855,0,0,1,1.137-.387H41.159a5.72,5.72,0,0,0,5.716-5.716V41.008a5.72,5.72,0,0,0-5.716-5.716H29.213a1.838,1.838,0,0,1-1.49-2.921,21.709,21.709,0,0,1,18.605-8.781h.008A21.754,21.754,0,0,1,68.512,39.475h6.844a2.264,2.264,0,0,0,2.265-2.256,2.309,2.309,0,0,0-.076-.589A33.485,33.485,0,1,0,45.209,78.816H63.14a3.769,3.769,0,0,1,3.772,3.763v4.193a3.769,3.769,0,0,1-3.772,3.763H44.9A44.929,44.929,0,0,1,0,45.579v-.514a45.2,45.2,0,0,1,90.4.269M83.116,79.1a7.287,7.287,0,0,0-7.287,7.287v1.441a2.7,2.7,0,0,0,2.7,2.7H87.7a2.7,2.7,0,0,0,2.7-2.7V86.392A7.287,7.287,0,0,0,83.116,79.1m-4.828-8.462h0a4.828,4.828,0,1,0,4.828-4.828,4.829,4.829,0,0,0-4.828,4.828" transform="translate(0 0)" fill="url(#linear-gradient)"/>
</svg>
