<svg id="textlogo" xmlns="http://www.w3.org/2000/svg" width="169.791" height="53.645" viewBox="0 0 169.791 53.645">
  <path id="Path_1" data-name="Path 1" d="M385.725,638.532l3.409,3.483a11.575,11.575,0,0,1-7.735,2.933,9.75,9.75,0,0,1-10.044-9.971,9.548,9.548,0,0,1,9.751-9.861c5.939,0,9.421,4.509,9.421,11.657H376.853a4.6,4.6,0,0,0,4.509,3.446A6.86,6.86,0,0,0,385.725,638.532Zm-8.8-5.608h8.468a3.955,3.955,0,0,0-4.069-3.079A4.58,4.58,0,0,0,376.927,632.924Z" transform="translate(-371.355 -618.884)" fill="#fff"/>
  <path id="Path_2" data-name="Path 2" d="M474.68,599.283H483.7c8.468,0,14.48,5.205,14.48,12.574s-6.012,12.61-14.48,12.61H474.68Zm9.714,20.271c4.8,0,8.211-3.189,8.211-7.7,0-4.472-3.409-7.661-8.211-7.661h-4.326v15.359Z" transform="translate(-451.514 -598.843)" fill="#fff"/>
  <path id="Path_3" data-name="Path 3" d="M607.089,638.532l3.409,3.483a11.574,11.574,0,0,1-7.735,2.933,9.75,9.75,0,0,1-10.044-9.971,9.548,9.548,0,0,1,9.751-9.861c5.939,0,9.421,4.509,9.421,11.657H598.218a4.6,4.6,0,0,0,4.509,3.446A6.86,6.86,0,0,0,607.089,638.532Zm-8.8-5.608h8.468a3.955,3.955,0,0,0-4.069-3.079A4.58,4.58,0,0,0,598.291,632.924Z" transform="translate(-543.087 -618.884)" fill="#fff"/>
  <path id="Path_4" data-name="Path 4" d="M723.575,632.447v12.1h-5.132v-11.18a3.523,3.523,0,1,0-7.038-.293v11.474h-5.132v-11.18c0-2.2-1.393-3.739-3.336-3.739a3.411,3.411,0,0,0-3.666,3.446v11.437h-5.352V625.556h5.352v2.493a5.549,5.549,0,0,1,5.132-2.933,6.74,6.74,0,0,1,6.012,3.446,6.6,6.6,0,0,1,6.158-3.446A6.97,6.97,0,0,1,723.575,632.447Z" transform="translate(-621.597 -618.884)" fill="#fff"/>
  <path id="Path_5" data-name="Path 5" d="M859.275,633.181v11.327h-5.168V642.6a7.529,7.529,0,0,1-5.572,2.346c-4.032,0-7.148-2.419-7.148-6.049,0-3.739,3.482-6.3,7.882-6.3a13.679,13.679,0,0,1,4.839.953v-.367c0-2.016-1.247-3.776-4.362-3.776a10.835,10.835,0,0,0-4.912,1.356l-1.8-3.556a17.39,17.39,0,0,1,7.918-2.089C855.9,625.116,859.275,628.232,859.275,633.181Zm-5.168,5.352v-1.759a11.991,11.991,0,0,0-4.069-.7c-1.943,0-3.482,1.136-3.482,2.676s1.356,2.492,3.189,2.492C851.8,641.245,853.74,640.292,854.106,638.532Z" transform="translate(-736.001 -618.884)" fill="#fff"/>
  <path id="Path_6" data-name="Path 6" d="M958.9,632.447v12.06H953.73V633.584c0-2.346-1.466-3.959-3.592-3.959a3.772,3.772,0,0,0-3.959,3.666l-.037-.11v11.327H940.79V625.556h5.352v2.383a6.752,6.752,0,0,1,5.719-2.823C955.966,625.116,958.9,628.159,958.9,632.447Z" transform="translate(-813.118 -618.884)" fill="#fff"/>
  <path id="Path_7" data-name="Path 7" d="M1057.869,597.321v25.624h-5.352v-2.713a7.783,7.783,0,0,1-6.379,3.153c-5.059,0-8.724-4.106-8.724-9.934,0-5.792,3.666-9.9,8.724-9.9a7.783,7.783,0,0,1,6.379,3.152v-9.384Zm-5.352,16.129c0-3.153-2.016-5.389-4.839-5.389-2.969,0-5.059,2.236-5.059,5.389,0,3.189,2.09,5.425,5.059,5.425C1050.5,618.875,1052.517,616.639,1052.517,613.45Z" transform="translate(-888.078 -597.321)" fill="#fff"/>
  <path id="Path_11772" data-name="Path 11772" d="M2.112-5.211h1.36v-5.7h6.8v5.7h1.36V-17.88h-1.36v5.7h-6.8v-5.7H2.112Zm16.6.2a4.51,4.51,0,0,0,2.321-.612,4.612,4.612,0,0,0,1.675-1.692,4.823,4.823,0,0,0,.629-2.474,4.9,4.9,0,0,0-.6-2.449,4.439,4.439,0,0,0-1.65-1.684,4.608,4.608,0,0,0-2.372-.612,4.559,4.559,0,0,0-2.372.621,4.567,4.567,0,0,0-1.658,1.692,4.813,4.813,0,0,0-.612,2.432,4.841,4.841,0,0,0,.621,2.457,4.592,4.592,0,0,0,1.675,1.7A4.539,4.539,0,0,0,18.709-5.007Zm0-1.275a3.08,3.08,0,0,1-1.658-.459A3.369,3.369,0,0,1,15.869-8a3.626,3.626,0,0,1-.442-1.786,3.531,3.531,0,0,1,.442-1.769A3.406,3.406,0,0,1,17.051-12.8a3.08,3.08,0,0,1,1.658-.459,3.08,3.08,0,0,1,1.658.459,3.338,3.338,0,0,1,1.173,1.241,3.586,3.586,0,0,1,.434,1.769A3.683,3.683,0,0,1,21.54-8a3.3,3.3,0,0,1-1.173,1.258A3.08,3.08,0,0,1,18.709-6.282Zm6.87,1.071h1.275v-5.425a2.675,2.675,0,0,1,.663-1.922,2.184,2.184,0,0,1,1.65-.7,2.143,2.143,0,0,1,1.633.689,2.711,2.711,0,0,1,.646,1.93v5.425h1.275v-5.425a2.675,2.675,0,0,1,.663-1.922,2.184,2.184,0,0,1,1.65-.7,2.143,2.143,0,0,1,1.633.689,2.711,2.711,0,0,1,.646,1.93v5.425h1.275v-5.918a3.3,3.3,0,0,0-.468-1.743,3.4,3.4,0,0,0-1.241-1.216,3.351,3.351,0,0,0-1.692-.442,3.351,3.351,0,0,0-1.692.442A2.88,2.88,0,0,0,32.313-12.8a3.3,3.3,0,0,0-1.207-1.258,3.241,3.241,0,0,0-1.718-.476,3.11,3.11,0,0,0-1.454.349,2.8,2.8,0,0,0-1.08.978v-1.122H25.579Zm19.59.2a4.5,4.5,0,0,0,1.709-.315,4.368,4.368,0,0,0,1.335-.833,3.455,3.455,0,0,0,.833-1.131l-1.088-.578a3.825,3.825,0,0,1-1.105,1.19,2.864,2.864,0,0,1-1.684.476,3.137,3.137,0,0,1-1.53-.391,3.175,3.175,0,0,1-1.165-1.1,3.3,3.3,0,0,1-.485-1.692h7.176q.034-.221.051-.434t.017-.383a4.508,4.508,0,0,0-.289-1.59,4.472,4.472,0,0,0-.833-1.394,4.006,4.006,0,0,0-1.318-.986,4.072,4.072,0,0,0-1.76-.366,4.181,4.181,0,0,0-2.236.612,4.388,4.388,0,0,0-1.573,1.675,5.025,5.025,0,0,0-.578,2.44,5.054,5.054,0,0,0,.6,2.466,4.446,4.446,0,0,0,1.624,1.709A4.373,4.373,0,0,0,45.169-5.007Zm-.136-8.333a2.822,2.822,0,0,1,1.4.357,2.768,2.768,0,0,1,1.02.978,2.8,2.8,0,0,1,.4,1.437H42.023a3.186,3.186,0,0,1,.536-1.471A3.02,3.02,0,0,1,43.639-13,2.949,2.949,0,0,1,45.033-13.34Zm12.5,8.333a4.038,4.038,0,0,0,1.684-.332,2.751,2.751,0,0,0,1.148-.927,2.287,2.287,0,0,0,.417-1.343,2.3,2.3,0,0,0-.621-1.6,3.665,3.665,0,0,0-1.726-1l-1.513-.442a4.626,4.626,0,0,1-.553-.2,1.543,1.543,0,0,1-.553-.408A1.071,1.071,0,0,1,55.576-12a1.241,1.241,0,0,1,.459-.986,1.824,1.824,0,0,1,1.224-.391,2.469,2.469,0,0,1,1.42.434,2.772,2.772,0,0,1,.978,1.2l1.088-.51a3.26,3.26,0,0,0-1.335-1.675,3.816,3.816,0,0,0-2.1-.6,3.636,3.636,0,0,0-1.547.323,2.669,2.669,0,0,0-1.105.918,2.4,2.4,0,0,0-.408,1.394,2.214,2.214,0,0,0,.561,1.5,3.689,3.689,0,0,0,1.82,1l1.309.374a4.252,4.252,0,0,1,.629.221,1.924,1.924,0,0,1,.629.434,1.041,1.041,0,0,1,.272.757,1.229,1.229,0,0,1-.561,1.046,2.313,2.313,0,0,1-1.377.4,2.657,2.657,0,0,1-1.556-.493,3.282,3.282,0,0,1-1.1-1.326l-1.071.51a3.752,3.752,0,0,0,1.428,1.8A4.016,4.016,0,0,0,57.532-5.007Zm9.642,0a4.5,4.5,0,0,0,1.709-.315,4.368,4.368,0,0,0,1.335-.833,3.455,3.455,0,0,0,.833-1.131l-1.088-.578a3.825,3.825,0,0,1-1.105,1.19,2.864,2.864,0,0,1-1.684.476,3.137,3.137,0,0,1-1.53-.391,3.175,3.175,0,0,1-1.165-1.1,3.3,3.3,0,0,1-.485-1.692H71.17q.034-.221.051-.434t.017-.383a4.508,4.508,0,0,0-.289-1.59,4.472,4.472,0,0,0-.833-1.394,4.007,4.007,0,0,0-1.318-.986,4.072,4.072,0,0,0-1.76-.366,4.181,4.181,0,0,0-2.236.612,4.388,4.388,0,0,0-1.573,1.675,5.025,5.025,0,0,0-.578,2.44,5.054,5.054,0,0,0,.6,2.466A4.446,4.446,0,0,0,64.87-5.628,4.373,4.373,0,0,0,67.174-5.007Zm-.136-8.333a2.822,2.822,0,0,1,1.4.357,2.768,2.768,0,0,1,1.02.978,2.8,2.8,0,0,1,.4,1.437H64.028a3.186,3.186,0,0,1,.536-1.471A3.02,3.02,0,0,1,65.644-13,2.949,2.949,0,0,1,67.038-13.34Zm6.445,8.128h1.275v-5.612a2.386,2.386,0,0,1,.6-1.735,2.1,2.1,0,0,1,1.581-.612h.8v-1.275h-.578a3.3,3.3,0,0,0-1.437.289,2.372,2.372,0,0,0-.961.816v-.986H73.483Zm8.18,0h1.275l3.588-9.115H85.081l-2.772,7.38-2.772-7.38H78.108Zm6.36-10.8H89.3V-17.88H88.023Zm0,10.8H89.3v-9.115H88.023Zm8.06.2a4.18,4.18,0,0,0,1.6-.306,4.453,4.453,0,0,0,1.326-.833,3.494,3.494,0,0,0,.867-1.19l-1.156-.629a2.931,2.931,0,0,1-1.046,1.224,2.8,2.8,0,0,1-1.59.459,2.965,2.965,0,0,1-1.624-.459,3.237,3.237,0,0,1-1.139-1.25A3.753,3.753,0,0,1,92.9-9.769a3.79,3.79,0,0,1,.417-1.794A3.173,3.173,0,0,1,94.459-12.8a3.006,3.006,0,0,1,1.624-.451,2.84,2.84,0,0,1,1.6.459,2.838,2.838,0,0,1,1.037,1.19l1.156-.6a3.369,3.369,0,0,0-.867-1.2,4.546,4.546,0,0,0-1.326-.825,4.18,4.18,0,0,0-1.6-.306,4.457,4.457,0,0,0-2.364.621,4.373,4.373,0,0,0-1.6,1.692,5.038,5.038,0,0,0-.578,2.432,5.088,5.088,0,0,0,.578,2.44,4.42,4.42,0,0,0,1.6,1.709A4.411,4.411,0,0,0,96.083-5.007Zm10.186,0a4.5,4.5,0,0,0,1.709-.315,4.368,4.368,0,0,0,1.335-.833,3.455,3.455,0,0,0,.833-1.131l-1.088-.578a3.825,3.825,0,0,1-1.105,1.19,2.864,2.864,0,0,1-1.684.476,3.137,3.137,0,0,1-1.53-.391,3.175,3.175,0,0,1-1.165-1.1,3.3,3.3,0,0,1-.485-1.692h7.176q.034-.221.051-.434t.017-.383a4.508,4.508,0,0,0-.289-1.59,4.472,4.472,0,0,0-.833-1.394,4.007,4.007,0,0,0-1.318-.986,4.072,4.072,0,0,0-1.76-.366,4.181,4.181,0,0,0-2.236.612,4.388,4.388,0,0,0-1.573,1.675,5.025,5.025,0,0,0-.578,2.44,5.054,5.054,0,0,0,.6,2.466,4.446,4.446,0,0,0,1.624,1.709A4.374,4.374,0,0,0,106.269-5.007Zm-.136-8.333a2.822,2.822,0,0,1,1.4.357,2.768,2.768,0,0,1,1.02.978,2.8,2.8,0,0,1,.4,1.437h-5.833a3.186,3.186,0,0,1,.536-1.471,3.02,3.02,0,0,1,1.08-.961A2.949,2.949,0,0,1,106.133-13.34Z" transform="translate(28.789 58.652)" fill="#fff"/>
</svg>
